<?xml version="1.0" encoding="utf-8"?>
<!-- Generator: Adobe Illustrator 18.0.0, SVG Export Plug-In . SVG Version: 6.00 Build 0)  -->
<!DOCTYPE svg PUBLIC "-//W3C//DTD SVG 1.1//EN" "http://www.w3.org/Graphics/SVG/1.1/DTD/svg11.dtd">
<svg version="1.1"
	 id="svg3358" xmlns:rdf="http://www.w3.org/1999/02/22-rdf-syntax-ns#" xmlns:dc="http://purl.org/dc/elements/1.1/" xmlns:svg="http://www.w3.org/2000/svg" xmlns:cc="http://creativecommons.org/ns#"
	 xmlns="http://www.w3.org/2000/svg" xmlns:xlink="http://www.w3.org/1999/xlink" x="0px" y="0px" viewBox="0 0 800 450"
	 enable-background="new 0 0 800 450" xml:space="preserve">
<g id="g272">
	<g id="g286" transform="translate(144.9274,727.8212)">
		<path id="path288" fill="#049fd9" d="M481.3-420.4c-19.4,0-33.7,15.2-33.7,34c0,18.8,14.4,34,33.7,34c19.3,0,33.8-15.2,33.8-34
			C515.1-405.2,500.6-420.4,481.3-420.4 M549.6-386.4c0,37-28.6,67-68.3,67s-68.3-30-68.3-67c0-36.9,28.5-66.9,68.3-66.9
			S549.6-423.4,549.6-386.4"/>
	</g>
	<g id="g282" transform="translate(102.0426,727.2001)">
		<path id="path284" fill="#049fd9" d="M80.9-413.4c-1.3-0.7-11.8-6.9-27.4-6.9c-21.1,0-35.8,14.7-35.8,34.5
			c0,19.2,14,34.5,35.8,34.5c15.3,0,26-6.1,27.4-6.9v34.7c-4.1,1.1-15.2,4.6-29.8,4.6c-36.7,0-68.9-25.3-68.9-67
			c0-38.6,29.2-66.9,68.9-66.9c15.4,0,26.7,3.7,29.8,4.6V-413.4z"/>
	</g>
	<g id="g290" transform="translate(121.5124,727.9413)">
		<path id="path292" fill="#049fd9" d="M262.7-421.8c-0.5-0.2-14.2-3.9-25.5-3.9c-13.1,0-20.2,4.4-20.2,10.6c0,7.9,9.6,10.6,15,12.3
			l9,2.9c21.2,6.7,30.8,21.2,30.8,37c0,32.5-28.6,43.4-53.5,43.4c-17.4,0-33.6-3.2-35.2-3.5v-29.8c2.9,0.7,16.6,4.8,30.8,4.8
			c16.2,0,23.7-4.7,23.7-12.1c0-6.6-6.5-10.3-14.6-12.9c-2-0.7-4.9-1.6-7-2.3c-18.2-5.7-33.3-16.4-33.3-37.8
			c0-24.2,18.1-40.4,48.2-40.4c15.9,0,30.8,3.9,31.8,4.1V-421.8z"/>
	</g>
	<path id="path268" fill="#049fd9" d="M260.4,406.1h-32.6V276.7h32.6V406.1z"/>
	<g id="g278" transform="translate(134.9958,727.2001)">
		<path id="path280" fill="#049fd9" d="M388.6-413.4c-1.3-0.7-11.8-6.9-27.5-6.9c-21.1,0-35.7,14.7-35.7,34.5
			c0,19.2,14,34.5,35.7,34.5c15.3,0,26-6.1,27.5-6.9v34.7c-4.1,1.1-15.2,4.6-29.7,4.6c-36.7,0-68.9-25.3-68.9-67
			c0-38.6,29.2-66.9,68.9-66.9c15.3,0,26.6,3.7,29.7,4.6V-413.4z"/>
	</g>
	<g id="g294" transform="translate(89.154,744.2304)">
		<path id="path296" fill="#049fd9" d="M-39.5-606.5c0-8.9-7.3-16.1-16.2-16.1s-16.2,7.2-16.2,16.1v33.9c0,9,7.3,16.2,16.2,16.2
			s16.2-7.2,16.2-16.2V-606.5z"/>
	</g>
	<g id="g298" transform="translate(97.7633,748.5409)">
		<path id="path300" fill="#049fd9" d="M40.9-655.3c0-8.9-7.3-16.2-16.2-16.2c-8.9,0-16.2,7.2-16.2,16.2v78.5
			c0,9,7.3,16.2,16.2,16.2c8.9,0,16.2-7.2,16.2-16.2V-655.3z"/>
	</g>
	<g id="g302" transform="translate(106.3727,754.4384)">
		<path id="path304" fill="#049fd9" d="M121.3-722.2c0-8.9-7.3-16.1-16.2-16.1c-8.9,0-16.2,7.2-16.2,16.1v171.7
			c0,9,7.3,16.2,16.2,16.2c8.9,0,16.2-7.2,16.2-16.2V-722.2z"/>
	</g>
	<g id="g306" transform="translate(114.9821,748.5409)">
		<path id="path308" fill="#049fd9" d="M201.7-655.3c0-8.9-7.3-16.2-16.2-16.2c-8.9,0-16.2,7.2-16.2,16.2v78.5
			c0,9,7.3,16.2,16.2,16.2c8.9,0,16.2-7.2,16.2-16.2V-655.3z"/>
	</g>
	<g id="g310" transform="translate(123.5817,744.2304)">
		<path id="path312" fill="#049fd9" d="M282-606.5c0-8.9-7.2-16.1-16.1-16.1c-8.9,0-16.2,7.2-16.2,16.1v33.9c0,9,7.3,16.2,16.2,16.2
			c8.9,0,16.1-7.2,16.1-16.2V-606.5z"/>
	</g>
	<g id="g314" transform="translate(132.195,748.5409)">
		<path id="path316" fill="#049fd9" d="M362.4-655.3c0-8.9-7.2-16.2-16.1-16.2c-8.9,0-16.2,7.2-16.2,16.2v78.5
			c0,9,7.2,16.2,16.2,16.2c8.9,0,16.1-7.2,16.1-16.2V-655.3z"/>
	</g>
	<g id="g318" transform="translate(140.8102,754.4384)">
		<path id="path320" fill="#049fd9" d="M442.9-722.2c0-8.9-7.2-16.1-16.1-16.1c-8.9,0-16.2,7.2-16.2,16.1v171.7
			c0,9,7.2,16.2,16.2,16.2c8.9,0,16.1-7.2,16.1-16.2V-722.2z"/>
	</g>
	<g id="g322" transform="translate(149.4235,748.5409)">
		<path id="path324" fill="#049fd9" d="M523.3-655.3c0-8.9-7.2-16.2-16.4-16.2c-8.9,0-16.1,7.2-16.1,16.2v78.5
			c0,9,7.2,16.2,16.1,16.2c9.1,0,16.4-7.2,16.4-16.2V-655.3z"/>
	</g>
	<g id="g326" transform="translate(158.0192,744.2304)">
		<path id="path328" fill="#049fd9" d="M603.5-606.5c0-8.9-7.2-16.1-16.2-16.1c-8.9,0-16.2,7.2-16.2,16.1v33.9
			c0,9,7.2,16.2,16.2,16.2c8.9,0,16.2-7.2,16.2-16.2V-606.5z"/>
	</g>
	<g id="g330" transform="translate(156.2126,719.9218)">
		<path id="path332" fill="#049fd9" d="M586.7-330.9v2h-5.8v15h-2.4v-15h-5.8v-2H586.7z"/>
	</g>
	<g id="g334" transform="translate(156.3297,719.9218)">
		<path id="path336" fill="#049fd9" d="M587.8-330.9h3.7l5.1,14h0.1l4.9-14h3.6v17h-2.4v-14h-0.1l-5.2,14h-2.2l-5-14h-0.1v14h-2.4
			V-330.9z"/>
	</g>
</g>
</svg>
